<svg width="47" height="46" viewBox="0 0 47 46" fill="none" xmlns="http://www.w3.org/2000/svg">
<g clip-path="url(#clip0_193_13)">
<path d="M32.1982 45.9981C40.2007 45.9981 46.689 39.5094 46.689 31.5065C46.689 23.5035 40.2007 17.0149 32.1982 17.0149V12.7326C39.23 12.7326 44.93 7.03219 44.93 0C44.93 0 39.23 0.0320913 32.1982 0.0320913" fill="#333333"/>
<path d="M25.7784 6.52904C25.7964 5.41183 25.8325 4.29663 25.8386 3.17942C25.8406 2.70205 25.8386 2.22468 25.8386 1.7453C25.8386 1.50662 25.9549 0.916923 25.8004 0.704313C25.626 0.463622 25.6119 0.224937 25.6982 0.0263672C23.3776 0.0604651 21.0571 -0.069909 18.7426 0.371358C9.72125 2.09029 2.43075 9.06833 0.531415 17.8917C-1.44614 27.0901 2.19609 36.4168 9.78342 41.7622C14.3844 45.0035 19.5048 46.0284 24.8999 45.9983C24.938 45.2161 25.1366 44.47 25.2389 43.6957C25.3492 42.8613 25.279 41.9808 25.279 41.1424C25.279 41.0321 25.297 40.9358 25.3291 40.8476C25.3111 40.8014 25.297 40.7513 25.287 40.6971C25.1085 39.6722 24.9701 38.6673 25.1406 37.6323C25.3371 36.4449 25.5758 35.3779 25.2008 34.1925C25.1245 33.9498 25.1566 33.7432 25.2549 33.5787C25.2028 33.4122 25.1607 33.2457 25.1466 33.0692C24.1679 33.0893 23.1871 33.0833 22.2104 33.0271C16.5364 32.6942 12.2123 27.6035 12.8601 21.8992C13.4738 16.5037 17.7117 12.8532 23.159 12.7589C23.9412 12.7449 24.7254 12.7268 25.5096 12.7389C25.5377 12.5463 25.5718 12.3578 25.6059 12.1793C25.6139 12.1432 25.6219 12.1071 25.63 12.0689C25.6641 10.2216 25.7483 8.37634 25.7784 6.52904Z" fill="#333333"/>
<path d="M28.759 23.026C28.7129 26.2934 26.1236 28.8166 22.8704 28.7163C19.6775 28.618 17.2366 26.3014 17.1363 22.7833C17.0461 19.6704 19.9663 16.8462 23.0168 16.9907C26.5488 17.1571 28.9475 19.7185 28.759 23.026Z" fill="#2FE69A"/>
<path d="M27.5909 0.0322266H25.0137V12.7327H27.5909V0.0322266Z" fill="#333333"/>
<path d="M27.5917 33.0708H24.7998V45.9999H27.5917V33.0708Z" fill="#333333"/>
<path d="M33.1114 12.7124H31.2822V17.0168H33.1114V12.7124Z" fill="white"/>
<path d="M32.1747 33.0708C33.3765 33.0708 34.3508 32.0964 34.3508 30.8945C34.3508 29.6926 33.3765 28.7183 32.1747 28.7183C30.9728 28.7183 29.9985 29.6926 29.9985 30.8945C29.9985 32.0964 30.9728 33.0708 32.1747 33.0708Z" fill="white"/>
</g>
<defs>
<clipPath id="clip0_193_13">
<rect width="47" height="46" fill="white"/>
</clipPath>
</defs>
</svg>
